<svg width="38" height="33" viewBox="0 0 38 33" fill="none" xmlns="http://www.w3.org/2000/svg">
<path d="M18.1156 0.879326L18.1018 0.891463L0.680618 16.177L0.665229 16.1905L0.648787 16.2027C0.602956 16.2367 0.565457 16.2813 0.539522 16.3329C0.513581 16.3846 0.499998 16.4418 0.5 16.5C0.5 16.5986 0.538979 16.6926 0.607482 16.7615C0.675892 16.8303 0.768088 16.8684 0.863636 16.8684H5.18182H5.68182V17.3684V31.2632C5.68182 31.9484 6.23438 32.5 6.90909 32.5H13.8182C14.4929 32.5 15.0455 31.9484 15.0455 31.2632V20.8421V20.3421H15.5455H22.4545H22.9545V20.8421V31.2632C22.9545 31.9484 23.5071 32.5 24.1818 32.5H31.0909C31.7656 32.5 32.3182 31.9484 32.3182 31.2632V17.3684V16.8684H32.8182H37.1364C37.2319 16.8684 37.3241 16.8303 37.3925 16.7615C37.461 16.6926 37.5 16.5986 37.5 16.5C37.5 16.4418 37.4864 16.3846 37.4605 16.3329C37.4345 16.2813 37.397 16.2367 37.3512 16.2027L37.3348 16.1905L37.3194 16.177L19.9084 0.901654L19.8948 0.889734L19.8821 0.876864L19.8749 0.869661L19.8715 0.86622L19.8715 0.866204C19.7572 0.750025 19.6214 0.657937 19.4718 0.595133L19.6654 0.134125L19.4718 0.595133C19.3223 0.532348 19.1619 0.500037 19.0001 0.5L18.1156 0.879326ZM18.1156 0.879326L18.1285 0.866204M18.1156 0.879326L18.1285 0.866204M18.1285 0.866204C18.2428 0.750024 18.3786 0.657937 18.5282 0.595133C18.6777 0.532348 18.8381 0.500038 18.9999 0.5L18.1285 0.866204Z" fill="#979797" stroke="black"/>
</svg>
