<svg width="32" height="32" viewBox="0 0 32 32" fill="none" xmlns="http://www.w3.org/2000/svg">
<circle cx="16" cy="16" r="15.5" fill="#D9D9D9" stroke="black"/>
<path d="M3.87564 23L16 2L28.1244 23H3.87564Z" fill="#D9D9D9" stroke="black"/>
<circle r="6.5" transform="matrix(1 0 0 -1 16 16)" fill="#D9D9D9" stroke="black"/>
<path d="M21.5 16C21.5 15.463 21.0517 14.8422 20.019 14.3259C19.0163 13.8245 17.5961 13.5 16 13.5C14.4039 13.5 12.9837 13.8245 11.981 14.3259C10.9483 14.8422 10.5 15.463 10.5 16C10.5 16.537 10.9483 17.1578 11.981 17.6741C12.9837 18.1755 14.4039 18.5 16 18.5C17.5961 18.5 19.0163 18.1755 20.019 17.6741C21.0517 17.1578 21.5 16.537 21.5 16Z" fill="#D9D9D9" stroke="black"/>
<rect x="15.5" y="15.5" width="1" height="1" fill="#D9D9D9" stroke="black"/>
</svg>
